<svg version="1.1" viewBox="0.0 0.0 1336.3333333333333 107.0" fill="none" stroke="none" stroke-linecap="square" stroke-miterlimit="10" xmlns:xlink="http://www.w3.org/1999/xlink" xmlns="http://www.w3.org/2000/svg"><clipPath id="p.0"><path d="m0 0l1336.3334 0l0 107.0l-1336.3334 0l0 -107.0z" clip-rule="nonzero"/></clipPath><g clip-path="url(#p.0)"><path fill="#000000" fill-opacity="0.0" d="m0 0l1336.3334 0l0 107.0l-1336.3334 0z" fill-rule="evenodd"/><path fill="#000000" fill-opacity="0.0" d="m0.94750655 -1.3727034l1333.3859 0l0 106.64567l-1333.3859 0z" fill-rule="evenodd"/><path fill="#000000" d="m44.322506 71.52854l-31.40625 -13.65625l0 -7.5625l31.40625 -13.59375l0 8.90625l-21.90625 8.375l21.90625 8.6875l0 8.84375z" fill-rule="nonzero"/><path fill="#000000" d="m105.232376 62.18479q0.84375 0 1.328125 0.78125q0.5 0.78125 0.5 2.15625q0 2.609375 -1.234375 4.046875q-3.015625 3.46875 -6.1875 5.6875q-3.15625 2.21875 -7.203125 2.21875q-3.34375 0 -5.046875 -1.921875q-1.6875 -1.9375 -1.6875 -5.59375q0 -1.828125 0.921875 -6.53125q0.84375 -4.109375 0.84375 -5.6875q0 -1.046875 -0.71875 -1.046875q-0.84375 0 -2.421875 2.1875q-1.5625 2.1875 -3.140625 5.78125q-1.5625 3.59375 -2.546875 7.578125q-1.234375 5.234375 -6.140625 5.234375q-1.953125 0 -2.578125 -1.40625q-0.609375 -1.40625 -0.609375 -5.0625q0 -2.09375 0.0625 -3.328125l0.0625 -5.234375q0 -10.0625 2.046875 -20.96875q2.0625 -10.90625 6.078125 -18.3125q4.03125 -7.421875 9.640625 -7.421875q3.015625 0 4.875 2.578125q1.859375 2.578125 1.859375 6.703125q0 6.59375 -3.859375 13.6875q-3.859375 7.078125 -12.546875 16.546875q-0.1875 3.40625 -0.1875 7.0q2.15625 -5.5625 4.796875 -9.046875q2.640625 -3.5 5.21875 -5.0q2.59375 -1.5 4.75 -1.5q4.25 0 4.25 4.234375q0 2.546875 -1.4375 9.21875q-1.25 5.6875 -1.25 7.515625q0 2.609375 1.890625 2.609375q1.3125 0 3.109375 -1.59375q1.796875 -1.609375 4.796875 -5.203125q0.78125 -0.90625 1.765625 -0.90625zm-19.40625 -40.375q-1.171875 0 -2.609375 3.359375q-1.4375 3.359375 -2.78125 9.078125q-1.328125 5.71875 -2.1875 12.453125q4.0625 -4.765625 6.703125 -10.390625q2.640625 -5.625 2.640625 -10.1875q0 -2.09375 -0.453125 -3.203125q-0.453125 -1.109375 -1.3125 -1.109375zm45.075974 40.375q0.859375 0 1.34375 0.78125q0.484375 0.78125 0.484375 2.15625q0 2.609375 -1.234375 4.046875q-2.421875 2.9375 -6.828125 5.421875q-4.40625 2.484375 -9.4375 2.484375q-6.859375 0 -10.65625 -3.71875q-3.78125 -3.734375 -3.78125 -10.203125q0 -4.5 1.890625 -8.390625q1.890625 -3.890625 5.25 -6.171875q3.375 -2.28125 7.625 -2.28125q3.78125 0 6.0625 2.25q2.296875 2.25 2.296875 6.109375q0 4.5 -3.234375 7.734375q-3.234375 3.234375 -10.9375 5.125q1.625 3.015625 6.203125 3.015625q2.9375 0 6.6875 -2.0625q3.765625 -2.0625 6.515625 -5.390625q0.78125 -0.90625 1.75 -0.90625zm-16.453125 -9.484375q-2.421875 0 -4.09375 2.8125q-1.65625 2.8125 -1.65625 6.796875l0 0.125q3.859375 -0.90625 6.078125 -2.734375q2.21875 -1.828125 2.21875 -4.25q0 -1.234375 -0.6875 -1.984375q-0.6875 -0.765625 -1.859375 -0.765625zm37.752075 9.484375q0.859375 0 1.34375 0.78125q0.484375 0.78125 0.484375 2.15625q0 2.609375 -1.234375 4.046875q-2.8125 3.46875 -6.109375 5.6875q-3.296875 2.21875 -7.484375 2.21875q-5.75 0 -8.53125 -5.21875q-2.765625 -5.234375 -2.765625 -13.53125q0 -7.96875 2.046875 -18.15625q2.0625 -10.203125 6.078125 -17.515625q4.03125 -7.3125 9.578125 -7.3125q3.140625 0 4.9375 2.90625q1.796875 2.90625 1.796875 8.328125q0 7.78125 -4.3125 18.03125q-4.3125 10.25 -11.703125 20.3125q0.46875 2.6875 1.5 3.828125q1.046875 1.140625 2.75 1.140625q2.671875 0 4.703125 -1.53125q2.03125 -1.546875 5.15625 -5.265625q0.796875 -0.90625 1.765625 -0.90625zm-8.03125 -40.375q-1.5 0 -3.40625 5.421875q-1.890625 5.421875 -3.328125 13.453125q-1.4375 8.03125 -1.5625 15.421875q4.640625 -7.640625 7.375 -15.3125q2.75 -7.6875 2.75 -14.015625q0 -4.96875 -1.828125 -4.96875zm29.328217 40.375q0.859375 0 1.34375 0.78125q0.484375 0.78125 0.484375 2.15625q0 2.609375 -1.234375 4.046875q-2.8125 3.46875 -6.109375 5.6875q-3.296875 2.21875 -7.484375 2.21875q-5.75 0 -8.53125 -5.21875q-2.765625 -5.234375 -2.765625 -13.53125q0 -7.96875 2.046875 -18.15625q2.0625 -10.203125 6.078125 -17.515625q4.03125 -7.3125 9.578125 -7.3125q3.140625 0 4.9375 2.90625q1.796875 2.90625 1.796875 8.328125q0 7.78125 -4.3125 18.03125q-4.3125 10.25 -11.703125 20.3125q0.46875 2.6875 1.5 3.828125q1.046875 1.140625 2.75 1.140625q2.671875 0 4.703125 -1.53125q2.03125 -1.546875 5.15625 -5.265625q0.796875 -0.90625 1.765625 -0.90625zm-8.03125 -40.375q-1.5 0 -3.40625 5.421875q-1.890625 5.421875 -3.328125 13.453125q-1.4375 8.03125 -1.5625 15.421875q4.640625 -7.640625 7.375 -15.3125q2.75 -7.6875 2.75 -14.015625q0 -4.96875 -1.828125 -4.96875zm15.609467 55.265625q-3.84375 0 -6.5625 -1.921875q-2.703125 -1.9375 -4.078125 -5.0625q-1.375 -3.140625 -1.375 -6.734375q0 -4.96875 1.859375 -8.84375q1.859375 -3.890625 5.0625 -6.078125q3.203125 -2.203125 7.1875 -2.203125q3.859375 0 6.59375 1.9375q2.75 1.921875 4.125 5.0625q1.375 3.140625 1.375 6.71875q0 4.96875 -1.90625 8.859375q-1.890625 3.890625 -5.125 6.078125q-3.234375 2.1875 -7.15625 2.1875zm0.71875 -7.0625q2.21875 0 3.75 -2.40625q1.546875 -2.421875 1.546875 -7.0625q0 -3.59375 -1.3125 -5.421875q-1.296875 -1.828125 -3.125 -1.828125q-2.359375 0 -3.890625 2.390625q-1.53125 2.375 -1.53125 7.078125q0 3.734375 1.296875 5.5q1.3125 1.75 3.265625 1.75zm83.88995 -13.125q0.1875 -0.0625 0.65625 -0.0625q0.96875 0 1.484375 0.65625q0.53125 0.640625 0.53125 1.75q0 2.03125 -0.78125 3.171875q-0.78125 1.140625 -2.359375 1.671875q-3.0 0.984375 -6.390625 0.984375q-2.8749847 0 -5.4218597 -0.796875q-1.90625 3.078125 -4.1875 6.34375q-2.609375 3.71875 -4.46875 5.09375q-1.859375 1.375 -4.21875 1.375q-2.609375 0 -3.953125 -2.015625q-1.34375 -2.03125 -1.671875 -6.671875l-0.3125 -4.765625q-2.03125 5.484375 -3.640625 8.359375q-1.59375 2.875 -3.203125 3.984375q-1.59375 1.109375 -3.75 1.109375q-2.671875 0 -4.21875 -2.09375q-1.53125 -2.09375 -1.921875 -6.59375q-0.78125 -9.15625 -0.78125 -16.015625l0 -2.28125q0.0625 -2.15625 1.171875 -3.0q1.109375 -0.859375 3.34375 -0.859375q1.6875 0 2.5 0.765625q0.828125 0.75 0.828125 2.515625q0 7.5 0.90625 19.53125q4.453125 -9.34375 8.171875 -19.46875q0.71875 -1.96875 1.734375 -2.65625q1.015625 -0.6875 2.453125 -0.6875q1.75 0 2.4375 0.71875q0.6875 0.71875 0.6875 2.5625q0 7.5 0.921875 19.53125q3.921875 -5.8125 5.875 -9.28125q-0.984375 -1.890625 -0.984375 -4.515625q0 -2.21875 0.984375 -4.296875q0.984375 -2.09375 2.671875 -3.40625q1.703125 -1.3125 3.859375 -1.3125q1.8906097 0 3.0624847 1.34375q1.1875 1.34375 1.1875 3.890625q0 2.9375 -1.5625 6.734375q2.46875 -0.140625 6.59375 -0.984375l1.765625 -0.328125zm26.12033 5.296875q0.859375 0 1.34375 0.78125q0.484375 0.78125 0.484375 2.15625q0 2.609375 -1.234375 4.046875q-2.421875 2.9375 -6.828125 5.421875q-4.40625 2.484375 -9.4375 2.484375q-6.859375 0 -10.65625 -3.71875q-3.78125 -3.734375 -3.78125 -10.203125q0 -4.5 1.890625 -8.390625q1.890625 -3.890625 5.25 -6.171875q3.375 -2.28125 7.625 -2.28125q3.78125 0 6.0625 2.25q2.296875 2.25 2.296875 6.109375q0 4.5 -3.234375 7.734375q-3.234375 3.234375 -10.9375 5.125q1.625 3.015625 6.203125 3.015625q2.9375 0 6.6875 -2.0625q3.765625 -2.0625 6.515625 -5.390625q0.78125 -0.90625 1.75 -0.90625zm-16.453125 -9.484375q-2.421875 0 -4.09375 2.8125q-1.65625 2.8125 -1.65625 6.796875l0 0.125q3.859375 -0.90625 6.078125 -2.734375q2.21875 -1.828125 2.21875 -4.25q0 -1.234375 -0.6875 -1.984375q-0.6875 -0.765625 -1.859375 -0.765625zm25.939575 24.375q-6.546875 0 -9.515625 -5.03125q-2.96875 -5.03125 -2.96875 -14.5625q0 -8.4375 2.09375 -18.328125q2.09375 -9.90625 6.109375 -16.859375q4.015625 -6.953125 9.5625 -6.953125q3.015625 0 4.84375 2.578125q1.828125 2.578125 1.828125 6.703125q0 5.34375 -2.03125 10.640625q-2.03125 5.296875 -6.734375 11.109375q3.203125 0.265625 5.578125 2.15625q2.390625 1.890625 3.671875 4.90625q1.28125 3.0 1.28125 6.515625q0 4.90625 -1.9375 8.828125q-1.921875 3.921875 -5.0625 6.109375q-3.140625 2.1875 -6.71875 2.1875zm-3.859375 -26.265625q4.3125 -7.90625 6.890625 -13.9375q2.578125 -6.046875 2.578125 -10.75q0 -2.09375 -0.5 -3.203125q-0.484375 -1.109375 -1.328125 -1.109375q-1.3125 0 -2.84375 3.890625q-1.53125 3.875 -2.84375 10.546875q-1.296875 6.65625 -1.953125 14.5625zm4.109375 19.203125q2.21875 0 3.75 -2.40625q1.546875 -2.421875 1.546875 -7.0625q0 -3.59375 -1.3125 -5.421875q-1.296875 -1.828125 -3.125 -1.828125q-2.296875 0 -3.859375 2.359375q-1.5625 2.34375 -1.5625 6.859375q0 3.90625 1.296875 5.703125q1.3125 1.796875 3.265625 1.796875z" fill-rule="nonzero"/><path fill="#000000" d="m334.30096 77.52854l11.34375 -47.375l6.59375 0l-11.46875 47.375l-6.46875 0zm20.84375 -5.96875l0 -8.84375l21.9375 -8.625l-21.9375 -8.53125l0 -8.78125l31.4375 13.59375l0 7.5l-31.4375 13.6875z" fill-rule="nonzero"/><path fill="#000000" d="m409.3947 62.606667l0 -8.28125q2.53125 -0.140625 3.796875 -0.765625q1.28125 -0.625 2.203125 -2.078125q0.9375 -1.46875 1.28125 -3.6875q0.28125 -1.65625 0.28125 -5.75q0 -6.703125 0.625 -9.328125q0.625 -2.640625 2.234375 -4.25q1.625 -1.609375 4.734375 -2.53125q2.09375 -0.625 6.625 -0.625l1.828125 0l0 8.25q-3.828125 0 -4.921875 0.4375q-1.078125 0.421875 -1.609375 1.296875q-0.515625 0.875 -0.515625 3.015625q0 2.171875 -0.3125 8.25q-0.171875 3.421875 -0.890625 5.546875q-0.71875 2.109375 -1.84375 3.5q-1.125 1.375 -3.4375 2.859375q2.03125 1.171875 3.328125 2.75q1.296875 1.5625 1.984375 3.8125q0.6875 2.234375 0.90625 5.984375q0.234375 5.734375 0.234375 7.328125q0 2.265625 0.546875 3.15625q0.5625 0.90625 1.671875 1.375q1.125 0.46875 4.859375 0.46875l0 8.28125l-1.828125 0q-4.65625 0 -7.140625 -0.75q-2.484375 -0.734375 -4.203125 -2.46875q-1.703125 -1.71875 -2.296875 -4.265625q-0.578125 -2.53125 -0.578125 -7.984375q0 -6.34375 -0.546875 -8.234375q-0.765625 -2.765625 -2.296875 -3.953125q-1.53125 -1.1875 -4.71875 -1.359375zm27.496582 0l0 -8.28125q2.53125 -0.140625 3.796875 -0.765625q1.28125 -0.625 2.203125 -2.078125q0.9375 -1.46875 1.28125 -3.6875q0.28125 -1.65625 0.28125 -5.75q0 -6.703125 0.625 -9.328125q0.625 -2.640625 2.234375 -4.25q1.625 -1.609375 4.734375 -2.53125q2.09375 -0.625 6.625 -0.625l1.828125 0l0 8.25q-3.828125 0 -4.921875 0.4375q-1.078125 0.421875 -1.609375 1.296875q-0.515625 0.875 -0.515625 3.015625q0 2.171875 -0.3125 8.25q-0.171875 3.421875 -0.890625 5.546875q-0.71875 2.109375 -1.84375 3.5q-1.125 1.375 -3.4375 2.859375q2.03125 1.171875 3.328125 2.75q1.296875 1.5625 1.984375 3.8125q0.6875 2.234375 0.90625 5.984375q0.234375 5.734375 0.234375 7.328125q0 2.265625 0.546875 3.15625q0.5625 0.90625 1.671875 1.375q1.125 0.46875 4.859375 0.46875l0 8.28125l-1.828125 0q-4.65625 0 -7.140625 -0.75q-2.484375 -0.734375 -4.203125 -2.46875q-1.703125 -1.71875 -2.296875 -4.265625q-0.578125 -2.53125 -0.578125 -7.984375q0 -6.34375 -0.546875 -8.234375q-0.765625 -2.765625 -2.296875 -3.953125q-1.53125 -1.1875 -4.71875 -1.359375z" fill-rule="nonzero"/><path fill="#000000" d="m501.73166 76.99729q-4.984375 0 -8.984375 -2.328125q-4.0 -2.34375 -6.34375 -6.375q-2.328125 -4.03125 -2.328125 -9.078125q0 -5.0625 2.140625 -9.0625q2.140625 -4.0 5.859375 -6.328125q3.71875 -2.34375 8.390625 -2.34375q3.765625 0 6.96875 1.578125q3.203125 1.5625 5.3749695 4.25l0 -17.28125q0 -1.46875 0.92193604 -2.359375q0.9375 -0.90625 2.34375 -0.90625q1.46875 0 2.359375 0.90625q0.90625 0.890625 0.90625 2.359375l0 29.1875q0 5.046875 -2.34375 9.078125q-2.328125 4.03125 -6.2969055 6.375q-3.96875 2.328125 -8.96875 2.328125zm0 -5.75q3.265625 0 5.828125 -1.5625q2.5625 -1.578125 4.03125 -4.328125q1.4687805 -2.75 1.4687805 -6.140625q0 -3.453125 -1.4687805 -6.140625q-1.46875 -2.703125 -4.03125 -4.265625q-2.5625 -1.5625 -5.828125 -1.5625q-3.1875 0 -5.78125 1.5625q-2.59375 1.5625 -4.109375 4.265625q-1.5 2.6875 -1.5 6.140625q0 3.390625 1.5 6.140625q1.515625 2.75 4.109375 4.328125q2.59375 1.5625 5.78125 1.5625zm45.570038 5.75q-5.3125 0 -9.4375 -2.265625q-4.125 -2.265625 -6.46875 -6.265625q-2.328125 -4.0 -2.328125 -9.1875q0 -5.25 2.203125 -9.25q2.21875 -4.0 6.109375 -6.265625q3.90625 -2.28125 8.96875 -2.28125q4.984375 0 8.5625 2.21875q3.59375 2.203125 5.484375 6.078125q1.890625 3.859375 1.890625 8.921875q0 1.21875 -0.84375 2.015625q-0.828125 0.796875 -2.109375 0.796875l-25.78125 0l0 -5.125l25.59375 0l-2.625 1.796875q-0.0625 -3.203125 -1.28125 -5.71875q-1.21875 -2.53125 -3.453125 -4.0q-2.234375 -1.484375 -5.4375 -1.484375q-3.65625 0 -6.25 1.609375q-2.578125 1.59375 -3.921875 4.390625q-1.34375 2.78125 -1.34375 6.296875q0 3.515625 1.59375 6.265625q1.59375 2.75 4.40625 4.359375q2.828125 1.59375 6.46875 1.59375q1.984375 0 4.0625 -0.734375q2.09375 -0.734375 3.359375 -1.703125q0.96875 -0.703125 2.078125 -0.734375q1.125 -0.03125 1.953125 0.671875q1.09375 0.96875 1.15625 2.125q0.0625 1.140625 -1.015625 1.984375q-2.1875 1.71875 -5.421875 2.8125q-3.21875 1.078125 -6.171875 1.078125zm26.431458 -22.140625q0 -3.84375 1.890625 -6.875q1.890625 -3.046875 5.09375 -4.828125q3.203125 -1.796875 7.03125 -1.796875q3.84375 0 5.734375 1.25q1.890625 1.25 1.4375 2.96875q-0.1875 0.90625 -0.734375 1.390625q-0.546875 0.46875 -1.25 0.59375q-0.703125 0.125 -1.53125 -0.0625q-4.09375 -0.828125 -7.359375 -0.125q-3.265625 0.703125 -5.15625 2.625q-1.890625 1.921875 -1.890625 4.859375l-3.265625 0zm0.0625 21.890625q-1.53125 0 -2.359375 -0.796875q-0.828125 -0.796875 -0.828125 -2.40625l0 -28.609375q0 -1.53125 0.828125 -2.359375q0.828125 -0.84375 2.359375 -0.84375q1.609375 0 2.40625 0.8125q0.796875 0.796875 0.796875 2.390625l0 28.609375q0 1.546875 -0.796875 2.375q-0.796875 0.828125 -2.40625 0.828125zm50.637146 0q-1.421875 0 -2.375 -0.953125q-0.953125 -0.96875 -0.953125 -2.375l0 -43.328125q0 -1.46875 0.953125 -2.390625q0.953125 -0.9375 2.375 -0.9375l11.578125 0q5.5 0 10.015625 1.828125q4.515625 1.828125 7.84375 5.1875q3.328125 3.359375 5.109375 7.90625q1.796875 4.53125 1.796875 10.03125q0 5.515625 -1.796875 10.09375q-1.78125 4.5625 -5.109375 7.9375q-3.328125 3.359375 -7.84375 5.1875q-4.515625 1.8125 -10.015625 1.8125l-11.578125 0zm3.328125 -5.890625l8.25 0q5.375 0 9.5 -2.453125q4.125 -2.46875 6.5 -6.78125q2.375 -4.328125 2.375 -9.90625q0 -5.625 -2.375 -9.90625q-2.375 -4.296875 -6.5 -6.71875q-4.125 -2.4375 -9.5 -2.4375l-8.25 0l0 38.203125zm59.252502 6.140625q-5.3125 0 -9.4375 -2.265625q-4.125 -2.265625 -6.46875 -6.265625q-2.328125 -4.0 -2.328125 -9.1875q0 -5.25 2.203125 -9.25q2.21875 -4.0 6.109375 -6.265625q3.90625 -2.28125 8.96875 -2.28125q4.984375 0 8.5625 2.21875q3.59375 2.203125 5.484375 6.078125q1.890625 3.859375 1.890625 8.921875q0 1.21875 -0.84375 2.015625q-0.828125 0.796875 -2.109375 0.796875l-25.78125 0l0 -5.125l25.59375 0l-2.625 1.796875q-0.0625 -3.203125 -1.28125 -5.71875q-1.21875 -2.53125 -3.453125 -4.0q-2.234375 -1.484375 -5.4375 -1.484375q-3.65625 0 -6.25 1.609375q-2.578125 1.59375 -3.921875 4.390625q-1.34375 2.78125 -1.34375 6.296875q0 3.515625 1.59375 6.265625q1.59375 2.75 4.40625 4.359375q2.828125 1.59375 6.46875 1.59375q1.984375 0 4.0625 -0.734375q2.09375 -0.734375 3.359375 -1.703125q0.96875 -0.703125 2.078125 -0.734375q1.125 -0.03125 1.953125 0.671875q1.09375 0.96875 1.15625 2.125q0.0625 1.140625 -1.015625 1.984375q-2.1875 1.71875 -5.421875 2.8125q-3.21875 1.078125 -6.171875 1.078125zm33.854614 -0.3125q-1.984375 0 -3.0625 -2.109375l-13.578125 -28.609375q-0.5 -1.09375 -0.09375 -2.140625q0.421875 -1.0625 1.640625 -1.640625q1.078125 -0.578125 2.203125 -0.1875q1.125 0.375 1.703125 1.46875l12.671875 27.328125l-3.078125 0l12.546875 -27.328125q0.578125 -1.09375 1.75 -1.46875q1.1875 -0.390625 2.40625 0.1875q1.15625 0.515625 1.53125 1.609375q0.390625 1.078125 -0.125 2.171875l-13.5625 28.609375q-0.96875 2.109375 -2.953125 2.109375zm38.401245 0.3125q-5.3125 0 -9.4375 -2.265625q-4.125 -2.265625 -6.46875 -6.265625q-2.328125 -4.0 -2.328125 -9.1875q0 -5.25 2.203125 -9.25q2.21875 -4.0 6.109375 -6.265625q3.90625 -2.28125 8.96875 -2.28125q4.984375 0 8.5625 2.21875q3.59375 2.203125 5.484375 6.078125q1.890625 3.859375 1.890625 8.921875q0 1.21875 -0.84375 2.015625q-0.828125 0.796875 -2.109375 0.796875l-25.78125 0l0 -5.125l25.59375 0l-2.625 1.796875q-0.0625 -3.203125 -1.28125 -5.71875q-1.21875 -2.53125 -3.453125 -4.0q-2.234375 -1.484375 -5.4375 -1.484375q-3.65625 0 -6.25 1.609375q-2.578125 1.59375 -3.921875 4.390625q-1.34375 2.78125 -1.34375 6.296875q0 3.515625 1.59375 6.265625q1.59375 2.75 4.40625 4.359375q2.828125 1.59375 6.46875 1.59375q1.984375 0 4.0625 -0.734375q2.09375 -0.734375 3.359375 -1.703125q0.96875 -0.703125 2.078125 -0.734375q1.125 -0.03125 1.953125 0.671875q1.09375 0.96875 1.15625 2.125q0.0625 1.140625 -1.015625 1.984375q-2.1875 1.71875 -5.421875 2.8125q-3.21875 1.078125 -6.171875 1.078125zm31.618958 -0.25q-2.8125 0 -5.0 -1.53125q-2.171875 -1.546875 -3.390625 -4.203125q-1.203125 -2.65625 -1.203125 -6.109375l0 -34.9375q0 -1.40625 0.890625 -2.296875q0.890625 -0.90625 2.3125 -0.90625q1.40625 0 2.296875 0.90625q0.890625 0.890625 0.890625 2.296875l0 34.9375q0 2.375 0.890625 3.90625q0.90625 1.53125 2.3125 1.53125l1.609375 0q1.265625 0 2.0625 0.90625q0.8125 0.890625 0.8125 2.296875q0 1.40625 -1.21875 2.3125q-1.21875 0.890625 -3.140625 0.890625l-0.125 0zm24.826843 0.25q-5.171875 0 -9.140625 -2.265625q-3.96875 -2.265625 -6.25 -6.265625q-2.265625 -4.0 -2.265625 -9.1875q0 -5.25 2.265625 -9.25q2.28125 -4.0 6.25 -6.265625q3.96875 -2.28125 9.140625 -2.28125q5.125 0 9.09375 2.28125q3.96875 2.265625 6.234375 6.265625q2.28125 4.0 2.28125 9.25q0 5.1875 -2.25 9.1875q-2.234375 4.0 -6.203125 6.265625q-3.96875 2.265625 -9.15625 2.265625zm0 -5.75q3.328125 0 5.890625 -1.53125q2.5625 -1.546875 4.0 -4.234375q1.4375 -2.6875 1.4375 -6.203125q0 -3.515625 -1.4375 -6.234375q-1.4375 -2.734375 -4.0 -4.265625q-2.5625 -1.53125 -5.890625 -1.53125q-3.328125 0 -5.890625 1.53125q-2.546875 1.53125 -4.03125 4.265625q-1.46875 2.71875 -1.46875 6.234375q0 3.515625 1.46875 6.203125q1.484375 2.6875 4.03125 4.234375q2.5625 1.53125 5.890625 1.53125zm30.606201 20.46875q-1.421875 0 -2.34375 -0.921875q-0.921875 -0.921875 -0.921875 -2.328125l0 -29.1875q0.0625 -5.0625 2.359375 -9.09375q2.3125 -4.03125 6.28125 -6.359375q3.96875 -2.34375 8.953125 -2.34375q5.0625 0 9.03125 2.34375q3.96875 2.328125 6.296875 6.359375q2.34375 4.03125 2.34375 9.09375q0 5.046875 -2.15625 9.046875q-2.140625 4.0 -5.859375 6.34375q-3.703125 2.328125 -8.375 2.328125q-3.78125 0 -6.953125 -1.5625q-3.15625 -1.5625 -5.40625 -4.25l0 17.28125q0 1.40625 -0.890625 2.328125q-0.890625 0.921875 -2.359375 0.921875zm14.328125 -20.46875q3.265625 0 5.828125 -1.5625q2.5625 -1.578125 4.0625 -4.296875q1.5 -2.71875 1.5 -6.109375q0 -3.453125 -1.5 -6.171875q-1.5 -2.734375 -4.0625 -4.296875q-2.5625 -1.5625 -5.828125 -1.5625q-3.203125 0 -5.796875 1.5625q-2.59375 1.5625 -4.0625 4.296875q-1.46875 2.71875 -1.46875 6.171875q0 3.390625 1.46875 6.109375q1.46875 2.71875 4.0625 4.296875q2.59375 1.5625 5.796875 1.5625zm43.835693 5.75q-5.3125 0 -9.4375 -2.265625q-4.125 -2.265625 -6.46875 -6.265625q-2.328125 -4.0 -2.328125 -9.1875q0 -5.25 2.203125 -9.25q2.21875 -4.0 6.109375 -6.265625q3.90625 -2.28125 8.96875 -2.28125q4.984375 0 8.5625 2.21875q3.59375 2.203125 5.484375 6.078125q1.890625 3.859375 1.890625 8.921875q0 1.21875 -0.84375 2.015625q-0.828125 0.796875 -2.109375 0.796875l-25.78125 0l0 -5.125l25.59375 0l-2.625 1.796875q-0.0625 -3.203125 -1.28125 -5.71875q-1.21875 -2.53125 -3.453125 -4.0q-2.234375 -1.484375 -5.4375 -1.484375q-3.65625 0 -6.25 1.609375q-2.578125 1.59375 -3.921875 4.390625q-1.34375 2.78125 -1.34375 6.296875q0 3.515625 1.59375 6.265625q1.59375 2.75 4.40625 4.359375q2.828125 1.59375 6.46875 1.59375q1.984375 0 4.0625 -0.734375q2.09375 -0.734375 3.359375 -1.703125q0.96875 -0.703125 2.078125 -0.734375q1.125 -0.03125 1.953125 0.671875q1.09375 0.96875 1.15625 2.125q0.0625 1.140625 -1.015625 1.984375q-2.1875 1.71875 -5.421875 2.8125q-3.21875 1.078125 -6.171875 1.078125zm26.431396 -22.140625q0 -3.84375 1.890625 -6.875q1.890625 -3.046875 5.09375 -4.828125q3.203125 -1.796875 7.03125 -1.796875q3.84375 0 5.734375 1.25q1.890625 1.25 1.4375 2.96875q-0.1875 0.90625 -0.734375 1.390625q-0.546875 0.46875 -1.25 0.59375q-0.703125 0.125 -1.53125 -0.0625q-4.09375 -0.828125 -7.359375 -0.125q-3.265625 0.703125 -5.15625 2.625q-1.890625 1.921875 -1.890625 4.859375l-3.265625 0zm0.0625 21.890625q-1.53125 0 -2.359375 -0.796875q-0.828125 -0.796875 -0.828125 -2.40625l0 -28.609375q0 -1.53125 0.828125 -2.359375q0.828125 -0.84375 2.359375 -0.84375q1.609375 0 2.40625 0.8125q0.796875 0.796875 0.796875 2.390625l0 28.609375q0 1.546875 -0.796875 2.375q-0.796875 0.828125 -2.40625 0.828125zm50.637207 0q-1.421875 0 -2.375 -0.953125q-0.953125 -0.96875 -0.953125 -2.375l0 -43.328125q0 -1.46875 0.953125 -2.390625q0.953125 -0.9375 2.375 -0.9375l12.796875 0q4.796875 0 8.5 2.109375q3.71875 2.109375 5.796875 5.859375q2.078125 3.75 2.078125 8.609375q0 4.671875 -2.078125 8.328125q-2.078125 3.640625 -5.796875 5.6875q-3.703125 2.046875 -8.5 2.046875l-9.46875 0l0 14.015625q0 1.40625 -0.9375 2.375q-0.921875 0.953125 -2.390625 0.953125zm3.328125 -23.484375l9.46875 0q2.9375 0 5.171875 -1.28125q2.25 -1.28125 3.53125 -3.515625q1.28125 -2.25 1.28125 -5.125q0 -3.078125 -1.28125 -5.40625q-1.28125 -2.34375 -3.53125 -3.6875q-2.234375 -1.34375 -5.171875 -1.34375l-9.46875 0l0 20.359375zm47.15442 23.734375q-5.171875 0 -9.140625 -2.265625q-3.96875 -2.265625 -6.25 -6.265625q-2.265625 -4.0 -2.265625 -9.1875q0 -5.25 2.265625 -9.25q2.28125 -4.0 6.25 -6.265625q3.96875 -2.28125 9.140625 -2.28125q5.125 0 9.09375 2.28125q3.96875 2.265625 6.234375 6.265625q2.28125 4.0 2.28125 9.25q0 5.1875 -2.25 9.1875q-2.234375 4.0 -6.203125 6.265625q-3.96875 2.265625 -9.15625 2.265625zm0 -5.75q3.328125 0 5.890625 -1.53125q2.5625 -1.546875 4.0 -4.234375q1.4375 -2.6875 1.4375 -6.203125q0 -3.515625 -1.4375 -6.234375q-1.4375 -2.734375 -4.0 -4.265625q-2.5625 -1.53125 -5.890625 -1.53125q-3.328125 0 -5.890625 1.53125q-2.546875 1.53125 -4.03125 4.265625q-1.46875 2.71875 -1.46875 6.234375q0 3.515625 1.46875 6.203125q1.484375 2.6875 4.03125 4.234375q2.5625 1.53125 5.890625 1.53125zm43.19995 5.75q-4.984375 0 -8.984375 -2.328125q-4.0 -2.34375 -6.34375 -6.375q-2.328125 -4.03125 -2.328125 -9.078125q0 -5.0625 2.140625 -9.0625q2.140625 -4.0 5.859375 -6.328125q3.71875 -2.34375 8.390625 -2.34375q3.765625 0 6.96875 1.578125q3.203125 1.5625 5.375 4.25l0 -17.28125q0 -1.46875 0.921875 -2.359375q0.9375 -0.90625 2.34375 -0.90625q1.46875 0 2.359375 0.90625q0.90625 0.890625 0.90625 2.359375l0 29.1875q0 5.046875 -2.34375 9.078125q-2.328125 4.03125 -6.296875 6.375q-3.96875 2.328125 -8.96875 2.328125zm0 -5.75q3.265625 0 5.828125 -1.5625q2.5625 -1.578125 4.03125 -4.328125q1.46875 -2.75 1.46875 -6.140625q0 -3.453125 -1.46875 -6.140625q-1.46875 -2.703125 -4.03125 -4.265625q-2.5625 -1.5625 -5.828125 -1.5625q-3.1875 0 -5.78125 1.5625q-2.59375 1.5625 -4.109375 4.265625q-1.5 2.6875 -1.5 6.140625q0 3.390625 1.5 6.140625q1.515625 2.75 4.109375 4.328125q2.59375 1.5625 5.78125 1.5625zm44.991943 5.75q-5.109375 0 -9.109375 -2.328125q-4.0 -2.34375 -6.28125 -6.34375q-2.265625 -4.0 -2.265625 -9.046875q0 -5.1875 2.234375 -9.21875q2.25 -4.03125 6.140625 -6.296875q3.90625 -2.28125 8.96875 -2.28125q3.78125 0 6.90625 1.4375q3.140625 1.4375 5.640625 4.328125q0.890625 1.015625 0.625 2.109375q-0.25 1.09375 -1.390625 1.921875q-0.90625 0.640625 -2.0 0.421875q-1.078125 -0.234375 -1.96875 -1.125q-3.140625 -3.328125 -7.8125 -3.328125q-3.265625 0 -5.765625 1.5q-2.484375 1.5 -3.90625 4.1875q-1.40625 2.6875 -1.40625 6.34375q0 3.453125 1.4375 6.140625q1.453125 2.6875 4.0 4.265625q2.5625 1.5625 5.953125 1.5625q2.25 0 3.9375 -0.546875q1.703125 -0.546875 3.109375 -1.703125q1.03125 -0.828125 2.109375 -0.921875q1.09375 -0.09375 1.921875 0.609375q1.09375 0.890625 1.21875 2.015625q0.125 1.125 -0.765625 2.015625q-4.609375 4.28125 -11.53125 4.28125zm37.198242 0q-4.671875 0 -8.390625 -2.328125q-3.71875 -2.34375 -5.859375 -6.34375q-2.140625 -4.0 -2.140625 -9.046875q0 -5.0625 2.328125 -9.09375q2.34375 -4.03125 6.34375 -6.359375q4.0 -2.34375 8.984375 -2.34375q5.0 0 8.96875 2.34375q3.96875 2.328125 6.296875 6.359375q2.34375 4.03125 2.34375 9.09375l-2.5 0q0 5.046875 -2.140625 9.046875q-2.140625 4.0 -5.859375 6.34375q-3.703125 2.328125 -8.375 2.328125zm1.265625 -5.75q3.265625 0 5.828125 -1.5625q2.5625 -1.578125 4.03125 -4.296875q1.46875 -2.71875 1.46875 -6.109375q0 -3.453125 -1.46875 -6.171875q-1.46875 -2.734375 -4.03125 -4.296875q-2.5625 -1.5625 -5.828125 -1.5625q-3.1875 0 -5.78125 1.5625q-2.59375 1.5625 -4.109375 4.296875q-1.5 2.71875 -1.5 6.171875q0 3.390625 1.5 6.109375q1.515625 2.71875 4.109375 4.296875q2.59375 1.5625 5.78125 1.5625zm14.34375 5.5625q-1.40625 0 -2.34375 -0.921875q-0.921875 -0.9375 -0.921875 -2.34375l0 -9.78125l1.21875 -6.796875l5.3125 2.3125l0 14.265625q0 1.40625 -0.9375 2.34375q-0.921875 0.921875 -2.328125 0.921875zm25.731201 0.1875q-4.484375 0 -8.296875 -1.375q-3.796875 -1.375 -5.921875 -3.484375q-0.953125 -1.015625 -0.796875 -2.328125q0.15625 -1.3125 1.25 -2.15625q1.28125 -1.015625 2.53125 -0.859375q1.25 0.15625 2.140625 1.125q1.09375 1.21875 3.484375 2.28125q2.40625 1.046875 5.34375 1.046875q3.71875 0 5.671875 -1.21875q1.953125 -1.21875 2.015625 -3.140625q0.0625 -1.921875 -1.828125 -3.328125q-1.890625 -1.40625 -6.875 -2.296875q-6.46875 -1.28125 -9.390625 -3.84375q-2.90625 -2.5625 -2.90625 -6.265625q0 -3.265625 1.921875 -5.40625q1.921875 -2.15625 4.921875 -3.203125q3.015625 -1.0625 6.28125 -1.0625q4.21875 0 7.484375 1.34375q3.265625 1.34375 5.1875 3.71875q0.890625 1.015625 0.828125 2.140625q-0.0625 1.125 -1.078125 1.890625q-1.03125 0.703125 -2.4375 0.453125q-1.40625 -0.265625 -2.375 -1.15625q-1.59375 -1.546875 -3.453125 -2.109375q-1.84375 -0.578125 -4.28125 -0.578125q-2.8125 0 -4.765625 0.96875q-1.953125 0.953125 -1.953125 2.796875q0 1.15625 0.609375 2.09375q0.609375 0.921875 2.390625 1.65625q1.796875 0.734375 5.25 1.4375q4.796875 0.96875 7.578125 2.4375q2.796875 1.46875 4.0 3.421875q1.21875 1.953125 1.21875 4.515625q0 2.9375 -1.5625 5.3125q-1.5625 2.359375 -4.609375 3.765625q-3.03125 1.40625 -7.578125 1.40625zm34.751953 -0.25q-3.203125 0 -5.765625 -1.625q-2.5625 -1.640625 -4.03125 -4.453125q-1.46875 -2.8125 -1.46875 -6.34375l0 -30.515625q0 -1.421875 0.890625 -2.3125q0.90625 -0.890625 2.3125 -0.890625q1.40625 0 2.296875 0.890625q0.890625 0.890625 0.890625 2.3125l0 30.515625q0 2.5625 1.40625 4.296875q1.421875 1.71875 3.46875 1.71875l2.171875 0q1.15625 0 1.953125 0.90625q0.796875 0.890625 0.796875 2.296875q0 1.40625 -1.0625 2.3125q-1.046875 0.890625 -2.71875 0.890625l-1.140625 0zm-14.21875 -28.21875q-1.34375 0 -2.171875 -0.765625q-0.828125 -0.78125 -0.828125 -1.921875q0 -1.28125 0.828125 -2.046875q0.828125 -0.78125 2.171875 -0.78125l14.796875 0q1.34375 0 2.171875 0.78125q0.828125 0.765625 0.828125 2.046875q0 1.140625 -0.828125 1.921875q-0.828125 0.765625 -2.171875 0.765625l-14.796875 0z" fill-rule="nonzero"/><path fill="#000000" d="m1265.3254 93.59104q-1.578125 0 -2.59375 -1.046875q-1.0 -1.03125 -1.0 -2.625q0 -1.65625 1.0 -2.671875q1.015625 -1.0 2.59375 -1.0q4.390625 0 4.390625 -4.390625l0 -16.765625q0 -5.046875 2.3125 -8.0q-1.15625 -1.515625 -1.734375 -3.53125q-0.578125 -2.015625 -0.578125 -4.53125l0 -16.78125q0 -4.390625 -4.390625 -4.390625q-1.578125 0 -2.59375 -1.0q-1.0 -1.015625 -1.0 -2.59375q0 -1.59375 1.0 -2.671875q1.015625 -1.078125 2.59375 -1.078125q11.734375 0 11.734375 11.734375l0 16.78125q0 4.390625 4.328125 4.390625q1.578125 0 2.625 1.015625q1.046875 1.0 1.046875 2.65625q0 1.578125 -1.046875 2.59375q-1.046875 1.0 -2.625 1.0q-4.328125 0 -4.328125 4.40625l0 16.765625q0 11.734375 -11.734375 11.734375zm28.151978 0q-1.578125 0 -2.59375 -1.046875q-1.0 -1.03125 -1.0 -2.625q0 -1.65625 1.0 -2.671875q1.015625 -1.0 2.59375 -1.0q4.390625 0 4.390625 -4.390625l0 -16.765625q0 -5.046875 2.3125 -8.0q-1.15625 -1.515625 -1.734375 -3.53125q-0.578125 -2.015625 -0.578125 -4.53125l0 -16.78125q0 -4.390625 -4.390625 -4.390625q-1.578125 0 -2.59375 -1.0q-1.0 -1.015625 -1.0 -2.59375q0 -1.59375 1.0 -2.671875q1.015625 -1.078125 2.59375 -1.078125q11.734375 0 11.734375 11.734375l0 16.78125q0 4.390625 4.328125 4.390625q1.578125 0 2.625 1.015625q1.046875 1.0 1.046875 2.65625q0 1.578125 -1.046875 2.59375q-1.046875 1.0 -2.625 1.0q-4.328125 0 -4.328125 4.40625l0 16.765625q0 11.734375 -11.734375 11.734375z" fill-rule="nonzero"/></g></svg>